# xmcd
#
# Track frame offsets: 
#        150
#        14688
#        32631
#        48280
#        65043
#        77541
#        90145
#        103706
#        124874
#        140045
#        155719
#        181151
#        206823
#        222401
#        241283
#        258937
#        286950
#        309550
#
# Disc length: 4361 seconds
#
# Revision: 0
# Processed by: cddbd v1.5.2PL0 Copyright (c) Steve Scherf et al.
# Submitted via: ExactAudioCopy v0.99pb4
#
DISCID=02110712
DTITLE=Shadowplay - Morgue: Complete Recordings [CD3: Raw Powder )
DYEAR=2005
DGENRE=Rock
TTITLE0=Cling To It
TTITLE1=Rose
TTITLE2=There''s Been A
TTITLE3=Gone Forever
TTITLE4=Sunshine
TTITLE5=Tremble On
TTITLE6=That''s All I''m Waiting For
TTITLE7=Ragged Tragedy Doll
TTITLE8=Try Not To Lose It
TTITLE9=After You
TTITLE10=Fake That
TTITLE11=More Than That (Live)
TTITLE12=Cling To It (Live)
TTITLE13=Tremble On (Live)
TTITLE14=A Loser (Live)
TTITLE15=Jelly (Live)
TTITLE16=Down On The Street (Live)
TTITLE17=I Got A Right (Live)
EXTD=
EXTT0=
EXTT1=
EXTT2=
EXTT3=
EXTT4=
EXTT5=
EXTT6=
EXTT7=
EXTT8=
EXTT9=
EXTT10=
EXTT11=
EXTT12=
EXTT13=
EXTT14=
EXTT15=
EXTT16=
EXTT17=
PLAYORDER=
